<?xml version="1.0" encoding="UTF-8" standalone="no"?>
<!-- Created with Inkscape (http://www.inkscape.org/) -->

<svg
   width="210mm"
   height="297mm"
   viewBox="0 0 210 297"
   version="1.1"
   id="svg5"
   xml:space="preserve"
   xmlns="http://www.w3.org/2000/svg"
   xmlns:svg="http://www.w3.org/2000/svg"><defs
     id="defs2" /><g
     id="layer1"><g
       style="fill:none"
       id="g566"
       transform="matrix(8.8194444,0,0,8.8194444,-0.38303829,47.215524)"><path
         d="m 12,16 c 1.6569,0 3,-1.3431 3,-3 0,-1.6569 -1.3431,-3 -3,-3 -1.6569,0 -3,1.3431 -3,3 0,1.6569 1.3431,3 3,3 z"
         stroke="#000000"
         stroke-width="2"
         stroke-linecap="round"
         stroke-linejoin="round"
         id="path554" /><path
         d="M 3,16.8 V 9.2 C 3,8.0799 3,7.51984 3.21799,7.09202 3.40973,6.71569 3.71569,6.40973 4.09202,6.21799 4.51984,6 5.0799,6 6.2,6 H 7.25464 C 7.37758,6 7.43905,6 7.49576,5.9935 7.79166,5.95961 8.05705,5.79559 8.21969,5.54609 8.25086,5.49827 8.27836,5.44328 8.33333,5.33333 8.44329,5.11342 8.49827,5.00346 8.56062,4.90782 8.8859,4.40882 9.41668,4.08078 10.0085,4.01299 10.1219,4 10.2448,4 10.4907,4 h 3.0186 c 0.2459,0 0.3688,0 0.4822,0.01299 0.5918,0.06779 1.1226,0.39583 1.4479,0.89483 0.0623,0.09563 0.1173,0.20563 0.2273,0.42551 0.0549,0.10996 0.0824,0.16494 0.1136,0.21276 0.1627,0.2495 0.428,0.41352 0.7239,0.44741 C 16.561,6 16.6224,6 16.7454,6 H 17.8 c 1.1201,0 1.6802,0 2.108,0.21799 0.3763,0.19174 0.6823,0.4977 0.874,0.87403 C 21,7.51984 21,8.0799 21,9.2 v 7.6 c 0,1.1201 0,1.6802 -0.218,2.108 -0.1917,0.3763 -0.4977,0.6823 -0.874,0.874 C 19.4802,20 18.9201,20 17.8,20 H 6.2 C 5.0799,20 4.51984,20 4.09202,19.782 3.71569,19.5903 3.40973,19.2843 3.21799,18.908 3,18.4802 3,17.9201 3,16.8 Z"
         stroke="#000000"
         stroke-width="2"
         stroke-linecap="round"
         stroke-linejoin="round"
         id="path556" /></g></g></svg>
